<mxfile host="app.diagrams.net" agent="Mozilla/5.0 (Macintosh; Intel Mac OS X 10_15_7) AppleWebKit/537.36 (KHTML, like Gecko) Chrome/131.0.0.0 Safari/537.36" version="26.0.6">
  <diagram name="Page-1" id="ruTP5SwrVkS9TxAR0y9q">
    <mxGraphModel dx="1026" dy="580" grid="1" gridSize="10" guides="1" tooltips="1" connect="1" arrows="1" fold="1" page="1" pageScale="1" pageWidth="827" pageHeight="1169" math="0" shadow="0">
      <root>
        <mxCell id="0" />
        <mxCell id="1" parent="0" />
        <mxCell id="-Ocu-fAjUHxnrkAx-ICQ-1" value="提前审批" style="rounded=0;whiteSpace=wrap;html=1;" vertex="1" parent="1">
          <mxGeometry x="360" y="120" width="120" height="60" as="geometry" />
        </mxCell>
        <mxCell id="-Ocu-fAjUHxnrkAx-ICQ-10" style="edgeStyle=orthogonalEdgeStyle;rounded=0;orthogonalLoop=1;jettySize=auto;html=1;entryX=0.5;entryY=0;entryDx=0;entryDy=0;" edge="1" parent="1" source="-Ocu-fAjUHxnrkAx-ICQ-2" target="-Ocu-fAjUHxnrkAx-ICQ-6">
          <mxGeometry relative="1" as="geometry">
            <Array as="points">
              <mxPoint x="310" y="320" />
              <mxPoint x="380" y="320" />
            </Array>
          </mxGeometry>
        </mxCell>
        <mxCell id="-Ocu-fAjUHxnrkAx-ICQ-2" value="单点登录场景" style="rounded=0;whiteSpace=wrap;html=1;" vertex="1" parent="1">
          <mxGeometry x="250" y="220" width="120" height="60" as="geometry" />
        </mxCell>
        <mxCell id="-Ocu-fAjUHxnrkAx-ICQ-3" value="非单点登录" style="rounded=0;whiteSpace=wrap;html=1;" vertex="1" parent="1">
          <mxGeometry x="470" y="220" width="120" height="60" as="geometry" />
        </mxCell>
        <mxCell id="-Ocu-fAjUHxnrkAx-ICQ-4" value="带审批单场景" style="whiteSpace=wrap;html=1;rounded=0;" vertex="1" parent="1">
          <mxGeometry x="180" y="350" width="120" height="60" as="geometry" />
        </mxCell>
        <mxCell id="-Ocu-fAjUHxnrkAx-ICQ-6" value="不带审批单场景" style="whiteSpace=wrap;html=1;rounded=0;" vertex="1" parent="1">
          <mxGeometry x="320" y="350" width="120" height="60" as="geometry" />
        </mxCell>
        <mxCell id="-Ocu-fAjUHxnrkAx-ICQ-11" style="edgeStyle=orthogonalEdgeStyle;rounded=0;orthogonalLoop=1;jettySize=auto;html=1;entryX=0.5;entryY=0;entryDx=0;entryDy=0;" edge="1" parent="1">
          <mxGeometry relative="1" as="geometry">
            <mxPoint x="310" y="280" as="sourcePoint" />
            <mxPoint x="240" y="350" as="targetPoint" />
            <Array as="points">
              <mxPoint x="310" y="320" />
              <mxPoint x="241" y="320" />
            </Array>
          </mxGeometry>
        </mxCell>
      </root>
    </mxGraphModel>
  </diagram>
</mxfile>
